<?xml version="1.0" encoding="UTF-8" standalone="no"?>
<!DOCTYPE svg PUBLIC "-//W3C//DTD SVG 1.1//EN"
 "http://www.w3.org/Graphics/SVG/1.1/DTD/svg11.dtd">
<!-- Generated by graphviz version 2.38.0 (20140413.2041)
 -->
<!-- Title: %3 Pages: 1 -->
<svg width="630pt" height="479pt"
 viewBox="0.00 0.00 629.59 479.00" xmlns="http://www.w3.org/2000/svg" xmlns:xlink="http://www.w3.org/1999/xlink">
<g id="graph0" class="graph" transform="scale(1 1) rotate(0) translate(4 475)">
<title>%3</title>
<polygon fill="#333333" stroke="none" points="-4,4 -4,-475 625.587,-475 625.587,4 -4,4"/>
<text text-anchor="middle" x="310.793" y="-9.2" font-family="Times,serif" font-size="16.00" fill="white">Network Map</text>
<!-- R4 -->
<g id="node1" class="node"><title>R4</title>
<polygon fill="#006699" stroke="#006699" points="86.5865,-223 10.5865,-223 10.5865,-150 86.5865,-150 86.5865,-223"/>
<text text-anchor="middle" x="48.5865" y="-182.8" font-family="Helvetica,sans-Serif" font-size="14.00" fill="white">R4</text>
</g>
<!-- R5 -->
<g id="node2" class="node"><title>R5</title>
<polygon fill="#006699" stroke="#006699" points="209.587,-223 133.587,-223 133.587,-150 209.587,-150 209.587,-223"/>
<text text-anchor="middle" x="171.587" y="-182.8" font-family="Helvetica,sans-Serif" font-size="14.00" fill="white">R5</text>
</g>
<!-- R1 -->
<g id="node3" class="node"><title>R1</title>
<polygon fill="#006699" stroke="#006699" points="270.587,-347 194.587,-347 194.587,-274 270.587,-274 270.587,-347"/>
<text text-anchor="middle" x="232.587" y="-306.8" font-family="Helvetica,sans-Serif" font-size="14.00" fill="white">R1</text>
</g>
<!-- SW1 -->
<g id="node6" class="node"><title>SW1</title>
<polygon fill="#006699" stroke="#006699" points="400.087,-223 311.087,-223 311.087,-150 400.087,-150 400.087,-223"/>
<text text-anchor="middle" x="355.587" y="-182.8" font-family="Helvetica,sans-Serif" font-size="14.00" fill="white">SW1</text>
</g>
<!-- R1&#45;&#45;SW1 -->
<g id="edge7" class="edge"><title>R1&#45;&#45;SW1</title>
<path fill="none" stroke="green" stroke-dasharray="5,2" d="M266.167,-273.969C276.46,-263.264 287.891,-251.557 298.587,-241 304.479,-235.184 310.799,-229.103 317.009,-223.212"/>
<text text-anchor="middle" x="348.587" y="-244.8" font-family="Courier,monospace" font-size="14.00" fill="white"> &#160;&#160;&#160;&#160;&#160;&#160;&#160;&#160;&#160;&#160;&#160;</text>
<text text-anchor="middle" x="292.009" y="-227.012" font-family="Courier,monospace" font-size="14.00" fill="white">Eth0/1</text>
<text text-anchor="middle" x="241.167" y="-262.769" font-family="Courier,monospace" font-size="14.00" fill="white">Eth0/0</text>
</g>
<!-- R2 -->
<g id="node4" class="node"><title>R2</title>
<polygon fill="#006699" stroke="#006699" points="515.587,-347 439.587,-347 439.587,-274 515.587,-274 515.587,-347"/>
<text text-anchor="middle" x="477.587" y="-306.8" font-family="Helvetica,sans-Serif" font-size="14.00" fill="white">R2</text>
</g>
<!-- R2&#45;&#45;SW1 -->
<g id="edge6" class="edge"><title>R2&#45;&#45;SW1</title>
<path fill="none" stroke="green" stroke-dasharray="5,2" d="M514.94,-273.824C521.93,-263.003 525.009,-251.268 517.587,-241 491.038,-204.274 438.358,-192.337 400.265,-188.677"/>
<text text-anchor="middle" x="571.587" y="-244.8" font-family="Courier,monospace" font-size="14.00" fill="white"> &#160;&#160;&#160;&#160;&#160;&#160;&#160;&#160;&#160;&#160;&#160;</text>
<text text-anchor="middle" x="425.265" y="-177.477" font-family="Courier,monospace" font-size="14.00" fill="white">Eth0/2</text>
<text text-anchor="middle" x="489.94" y="-262.624" font-family="Courier,monospace" font-size="14.00" fill="white">Eth0/0</text>
</g>
<!-- SW2 -->
<g id="node7" class="node"><title>SW2</title>
<polygon fill="#006699" stroke="#006699" points="522.087,-471 433.087,-471 433.087,-398 522.087,-398 522.087,-471"/>
<text text-anchor="middle" x="477.587" y="-430.8" font-family="Helvetica,sans-Serif" font-size="14.00" fill="white">SW2</text>
</g>
<!-- R2&#45;&#45;SW2 -->
<g id="edge4" class="edge"><title>R2&#45;&#45;SW2</title>
<path fill="none" stroke="green" stroke-dasharray="5,2" d="M477.587,-347.115C477.587,-363.01 477.587,-381.704 477.587,-397.629"/>
<text text-anchor="middle" x="527.587" y="-368.8" font-family="Courier,monospace" font-size="14.00" fill="white"> &#160;&#160;&#160;&#160;&#160;&#160;&#160;&#160;&#160;&#160;&#160;</text>
<text text-anchor="middle" x="448.587" y="-386.429" font-family="Courier,monospace" font-size="14.00" fill="white">Eth0/11</text>
<text text-anchor="middle" x="452.587" y="-350.915" font-family="Courier,monospace" font-size="14.00" fill="white">Eth0/1</text>
</g>
<!-- R3 -->
<g id="node5" class="node"><title>R3</title>
<polygon fill="#006699" stroke="#006699" points="270.587,-99 194.587,-99 194.587,-26 270.587,-26 270.587,-99"/>
<text text-anchor="middle" x="232.587" y="-58.8" font-family="Helvetica,sans-Serif" font-size="14.00" fill="white">R3</text>
</g>
<!-- R3&#45;&#45;R4 -->
<g id="edge8" class="edge"><title>R3&#45;&#45;R4</title>
<path fill="none" stroke="green" stroke-dasharray="5,2" d="M194.526,-65.1465C156.218,-68.9037 98.1376,-80.6938 64.5865,-117 56.3809,-125.879 52.129,-138.135 50,-149.829"/>
<text text-anchor="middle" x="114.587" y="-120.8" font-family="Courier,monospace" font-size="14.00" fill="white"> &#160;&#160;&#160;&#160;&#160;&#160;&#160;&#160;&#160;&#160;&#160;</text>
<text text-anchor="middle" x="25" y="-138.629" font-family="Courier,monospace" font-size="14.00" fill="white">Eth0/0</text>
<text text-anchor="middle" x="169.526" y="-53.9465" font-family="Courier,monospace" font-size="14.00" fill="white">Eth0/1</text>
</g>
<!-- R3&#45;&#45;R5 -->
<g id="edge2" class="edge"><title>R3&#45;&#45;R5</title>
<path fill="none" stroke="green" stroke-dasharray="5,2" d="M194.325,-89.0595C185.593,-96.9116 177.459,-106.337 172.587,-117 167.99,-127.061 166.601,-138.852 166.695,-149.788"/>
<text text-anchor="middle" x="222.587" y="-120.8" font-family="Courier,monospace" font-size="14.00" fill="white"> &#160;&#160;&#160;&#160;&#160;&#160;&#160;&#160;&#160;&#160;&#160;</text>
<text text-anchor="middle" x="141.695" y="-138.588" font-family="Courier,monospace" font-size="14.00" fill="white">Eth0/0</text>
<text text-anchor="middle" x="169.325" y="-77.8595" font-family="Courier,monospace" font-size="14.00" fill="white">Eth0/2</text>
</g>
<!-- R3&#45;&#45;SW1 -->
<g id="edge5" class="edge"><title>R3&#45;&#45;SW1</title>
<path fill="none" stroke="green" stroke-dasharray="5,2" d="M264.308,-99.3302C274.121,-110.046 285.11,-121.684 295.587,-132 301.553,-137.875 308.019,-143.935 314.422,-149.771"/>
<text text-anchor="middle" x="345.587" y="-120.8" font-family="Courier,monospace" font-size="14.00" fill="white"> &#160;&#160;&#160;&#160;&#160;&#160;&#160;&#160;&#160;&#160;&#160;</text>
<text text-anchor="middle" x="289.422" y="-138.571" font-family="Courier,monospace" font-size="14.00" fill="white">Eth0/3</text>
<text text-anchor="middle" x="239.308" y="-103.13" font-family="Courier,monospace" font-size="14.00" fill="white">Eth0/0</text>
</g>
<!-- SW1&#45;&#45;R1 -->
<g id="edge3" class="edge"><title>SW1&#45;&#45;R1</title>
<path fill="none" stroke="green" stroke-dasharray="5,2" d="M311.005,-199.031C257.94,-212.966 175.893,-235.263 171.587,-241 159.063,-257.683 175.33,-275.23 194.201,-288.387"/>
<text text-anchor="middle" x="221.587" y="-244.8" font-family="Courier,monospace" font-size="14.00" fill="white"> &#160;&#160;&#160;&#160;&#160;&#160;&#160;&#160;&#160;&#160;&#160;</text>
<text text-anchor="middle" x="169.201" y="-277.187" font-family="Courier,monospace" font-size="14.00" fill="white">Eth0/0</text>
<text text-anchor="middle" x="286.005" y="-187.831" font-family="Courier,monospace" font-size="14.00" fill="white">Eth0/1</text>
</g>
<!-- SW1&#45;&#45;R2 -->
<g id="edge1" class="edge"><title>SW1&#45;&#45;R2</title>
<path fill="none" stroke="green" stroke-dasharray="5,2" d="M386.425,-223.019C396.16,-233.833 407.113,-245.604 417.587,-256 424.52,-262.882 432.148,-270.001 439.572,-276.712"/>
<text text-anchor="middle" x="467.587" y="-244.8" font-family="Courier,monospace" font-size="14.00" fill="white"> &#160;&#160;&#160;&#160;&#160;&#160;&#160;&#160;&#160;&#160;&#160;</text>
<text text-anchor="middle" x="414.572" y="-265.512" font-family="Courier,monospace" font-size="14.00" fill="white">Eth0/0</text>
<text text-anchor="middle" x="361.425" y="-226.819" font-family="Courier,monospace" font-size="14.00" fill="white">Eth0/2</text>
</g>
<!-- SW1&#45;&#45;R3 -->
<g id="edge9" class="edge"><title>SW1&#45;&#45;R3</title>
<path fill="none" stroke="green" stroke-dasharray="5,2" d="M392.952,-149.815C399.942,-138.994 403.018,-127.261 395.587,-117 367.284,-77.9227 309.528,-66.8785 270.93,-64.0365"/>
<text text-anchor="middle" x="449.587" y="-120.8" font-family="Courier,monospace" font-size="14.00" fill="white"> &#160;&#160;&#160;&#160;&#160;&#160;&#160;&#160;&#160;&#160;&#160;</text>
<text text-anchor="middle" x="295.93" y="-52.8365" font-family="Courier,monospace" font-size="14.00" fill="white">Eth0/0</text>
<text text-anchor="middle" x="367.952" y="-138.615" font-family="Courier,monospace" font-size="14.00" fill="white">Eth0/3</text>
</g>
</g>
</svg>
